<?xml version="1.0" encoding="UTF-8" standalone="no"?>
<!-- Uploaded to: SVG Repo, www.svgrepo.com, Generator: SVG Repo Mixer Tools -->

<svg
   width="800"
   height="142"
   viewBox="0 -210 512 90.88"
   version="1.1"
   preserveAspectRatio="xMidYMid"
   id="svg1"
   sodipodi:docname="logo_eventbrite.svg"
   inkscape:version="1.3 (0e150ed6c4, 2023-07-21)"
   xmlns:inkscape="http://www.inkscape.org/namespaces/inkscape"
   xmlns:sodipodi="http://sodipodi.sourceforge.net/DTD/sodipodi-0.dtd"
   xmlns="http://www.w3.org/2000/svg"
   xmlns:svg="http://www.w3.org/2000/svg">
  <defs
     id="defs1" />
  <sodipodi:namedview
     id="namedview1"
     pagecolor="#ffffff"
     bordercolor="#666666"
     borderopacity="1.0"
     inkscape:showpageshadow="2"
     inkscape:pageopacity="0.0"
     inkscape:pagecheckerboard="0"
     inkscape:deskcolor="#d1d1d1"
     inkscape:zoom="1.8775"
     inkscape:cx="573.10253"
     inkscape:cy="21.038615"
     inkscape:window-width="1920"
     inkscape:window-height="986"
     inkscape:window-x="-11"
     inkscape:window-y="-11"
     inkscape:window-maximized="1"
     inkscape:current-layer="svg1" />
  <g
     id="g1"
     transform="matrix(0.9981691,0,0,0.98793085,0.34087884,-209.89614)">
    <path
       d="m 24.209832,31.239055 c 16.814464,-3.840867 33.628929,6.486799 37.469796,22.959852 0.379345,1.744987 0.623812,3.557413 0.7334,5.377332 l 0.03477,0.682704 -9.559493,2.133815 -4.950451,1.109584 -30.641587,6.913561 c 3.840867,5.462568 10.839781,8.279204 17.753343,6.742857 4.055542,-0.910428 7.629535,-3.265502 10.021546,-6.598265 l 0.220767,-0.315297 14.509944,3.414105 C 55.875651,82.109211 48.193916,88.766715 38.293013,90.985883 21.478549,94.82675 4.7494371,84.584437 0.82321701,68.02603 -3.1030031,51.467624 7.395368,35.079923 24.209832,31.239055 Z m 449.552198,0.08535 c 16.81447,-3.840868 33.62893,6.486798 37.4698,22.959852 0.37934,1.744987 0.62381,3.557413 0.7334,5.377332 l 0.0348,0.682703 -9.55949,2.133816 -4.95045,1.109584 -30.64159,6.913561 c 3.84087,5.462567 10.83978,8.279203 17.75334,6.742856 4.05554,-0.910427 7.62954,-3.265501 10.02155,-6.598264 l 0.22077,-0.315297 14.50994,3.328752 c -3.92622,8.449908 -11.60796,15.107412 -21.50886,17.32658 -16.81446,3.840867 -33.62893,-6.486799 -37.4698,-22.959853 -3.92622,-16.473053 6.57216,-32.860755 23.38662,-36.701622 z m -332.10701,0 c 16.81447,-3.840868 33.54358,6.486798 37.4698,22.959852 0.37934,1.744987 0.62381,3.557413 0.7334,5.377332 l 0.0348,0.682703 -9.55949,2.133816 -4.95045,1.109584 -30.64159,6.913561 c 4.01157,5.633272 11.01049,8.279203 17.75335,6.742856 4.18227,-0.938878 7.85244,-3.414104 10.24231,-6.913561 l 10.25831,2.315598 c 2.38981,0.546785 4.25163,0.98258 4.25163,1.013154 -3.92622,8.449908 -11.60795,15.107412 -21.50886,17.32658 -16.81446,3.840867 -33.62892,-6.486799 -37.46979,-22.959853 -3.92622,-16.473053 6.57215,-32.860755 23.38661,-36.701622 z M 300.923,0 v 35.848096 c 4.77974,-3.840867 10.41301,-5.462567 16.64375,-5.462567 17.58264,0 31.66582,13.571065 31.66582,30.556235 0,16.899817 -14.08318,30.726939 -31.66582,30.726939 -6.14538,0 -11.86401,-1.621699 -16.64375,-5.462567 v 3.840868 H 285.47417 V 3.499457 Z m 68.53814,31.409761 v 5.206509 c 4.68017,-3.342977 9.19667,-4.558289 16.83477,-5.008118 l 0.49181,-0.02769 v 15.022059 c -14.95634,0.506995 -17.28091,5.53131 -17.3259,14.410406 L 369.46114,90.047 H 354.01232 V 31.409761 Z M 268.57436,7.3403245 V 31.409761 h 12.03471 v 14.595296 h -12.03471 v 44.041947 h -16.0463 V 46.005057 h -9.47414 V 31.409761 h 9.47414 V 10.925134 Z M 215.31433,30.300177 c 13.05895,0 24.41084,7.511029 24.41084,25.861841 V 89.961651 H 224.191 V 58.722596 c 0,-11.11291 -5.88936,-13.718969 -11.90271,-13.823772 l -0.38807,-0.0034 -0.38807,0.0031 c -6.01335,0.09788 -11.9027,2.538585 -11.9027,13.567939 V 90.047004 H 184.16062 V 31.409761 h 15.44883 v 4.352983 l 1.14615,-0.823815 c 3.21058,-2.267643 7.25875,-4.638752 14.55873,-4.638752 z M 74.567872,31.409761 89.760637,71.184077 105.12411,31.409761 h 16.81446 L 97.869135,90.047004 H 81.822844 L 57.753408,31.409761 Z m 333.045888,0 V 90.047004 H 392.16494 V 31.409761 Z m 31.1537,-20.484627 v 20.484627 h 12.03472 V 46.261115 H 438.76746 V 89.961651 H 422.72117 V 46.346467 h -9.47414 V 31.409761 h 9.47414 V 10.925134 Z M 317.4814,44.46871 c -9.13273,0 -16.5584,7.254972 -16.89982,15.70488 v 1.450995 c 0.42677,8.535261 7.85244,15.70488 16.89982,15.70488 9.21808,0 16.81446,-7.51103 16.81446,-16.473054 0,-8.791319 -7.59638,-16.387701 -16.81446,-16.387701 z m 146.63579,13.997828 30.55623,-6.913561 c -4.01157,-5.54792 -11.01049,-8.193851 -17.66799,-6.657504 -6.80205,1.511567 -11.62119,6.906345 -12.83163,13.257933 l -0.0566,0.313132 30.55623,-6.913561 z m -332.10701,0 30.55623,-6.913561 c -3.84086,-5.377215 -10.75443,-8.193851 -17.66799,-6.657504 -6.80382,1.511961 -11.70636,6.909153 -12.83651,13.262892 l -0.0517,0.308173 30.55623,-6.913561 z m -117.445193,0 30.556235,-6.913561 C 41.280354,46.175762 34.366793,43.359126 27.453231,44.895473 20.649409,46.407434 15.74687,51.721961 14.61672,58.154428 l -0.05173,0.31211 30.556235,-6.913561 z M 399.93202,1.3656418 c 5.54792,0 9.64485,4.0969253 9.64485,9.4741402 0,5.462567 -4.18228,9.644844 -9.64485,9.644844 -5.54792,0 -9.81555,-4.182277 -9.81555,-9.644844 0,-5.4625675 4.26763,-9.4741402 9.81555,-9.4741402 z"
       fill="#f05537"
       fill-rule="nonzero"
       id="path1" />
  </g>
</svg>
