<?xml version="1.0" encoding="UTF-8" standalone="no"?>
<svg
   xmlns:dc="http://purl.org/dc/elements/1.1/"
   xmlns:cc="http://creativecommons.org/ns#"
   xmlns:rdf="http://www.w3.org/1999/02/22-rdf-syntax-ns#"
   xmlns:svg="http://www.w3.org/2000/svg"
   xmlns="http://www.w3.org/2000/svg"
   xmlns:sodipodi="http://sodipodi.sourceforge.net/DTD/sodipodi-0.dtd"
   xmlns:inkscape="http://www.inkscape.org/namespaces/inkscape"
   viewBox="0 0 500 836.4"
   version="1.1"
   id="svg38"
   sodipodi:docname="urlaubspiraten.svg"
   width="500"
   height="836.40002"
   inkscape:version="0.92.4 (5da689c313, 2019-01-14)">
  <metadata
     id="metadata44">
    <rdf:RDF>
      <cc:Work
         rdf:about="">
        <dc:format>image/svg+xml</dc:format>
        <dc:type
           rdf:resource="http://purl.org/dc/dcmitype/StillImage" />
        <dc:title></dc:title>
      </cc:Work>
    </rdf:RDF>
  </metadata>
  <defs
     id="defs42" />
  <sodipodi:namedview
     pagecolor="#ffffff"
     bordercolor="#666666"
     borderopacity="1"
     objecttolerance="10"
     gridtolerance="10"
     guidetolerance="10"
     inkscape:pageopacity="0"
     inkscape:pageshadow="2"
     inkscape:window-width="1920"
     inkscape:window-height="986"
     id="namedview40"
     showgrid="false"
     inkscape:zoom="0.67048252"
     inkscape:cx="424.53262"
     inkscape:cy="382.20237"
     inkscape:window-x="-11"
     inkscape:window-y="-11"
     inkscape:window-maximized="1"
     inkscape:current-layer="svg38" />
  <path
     d="m 316.44024,378.17804 c 50.7,35.8 89,88 107.5,148.8 28.2,-61.8 49.3,-127.1 49.3,-184.3 0,-19.4 -2.9,-38.2 -8.1,-55.9 a 307.03,307.03 0 0 0 -148.7,91.4"
     id="path2"
     inkscape:connector-curvature="0"
     style="fill:#f9be36" />
  <path
     d="m 316.44024,378.17804 c 39,-42.9 91.1,-75.9 148.7,-91.5 -3.5,-11.8 -8.1,-23.3 -13.6,-33.8 -1.7,0.9 -3.5,1.7 -5.2,2.6 a 311.8,311.8 0 0 0 -129.9,122.7"
     id="path4"
     inkscape:connector-curvature="0"
     style="fill:#da7f0c" />
  <path
     d="m 268.94024,325.27804 a 4.8,4.8 0 1 1 -4.8,4.8 c 0.1,-2.7 2.2,-4.8 4.8,-4.8"
     id="path6"
     inkscape:connector-curvature="0"
     style="fill:#a6a4a5" />
  <path
     d="m 201.24024,165.07804 c 24.1,-10.8 50.4,-16.9 78.4,-16.9 28.7,0 55.9,6.3 80.3,17.5 a 179.51,179.51 0 0 0 -71.1,-34.6 257.2,257.2 0 0 0 -55.2,-5.9 h -1.8 c -76,-0.5 -145.099998,-33.699997 -192.199998,-86.399997 29.2,60.3 89.499998,105.399997 154.299998,124.399997 2.1,0.6 4.7,1.3 7.3,1.9"
     id="path8"
     inkscape:connector-curvature="0"
     style="fill:#39b5d7" />
  <path
     d="m -3.5597576,161.77804 c 39.1999996,-4.1 78.3999996,-1.8 115.4999976,9 -8,-7.9 -15.499998,-16.3 -22.499998,-25.1 -32.5,-1 -63.9,4.7 -92.9999996,16.1"
     id="path10"
     inkscape:connector-curvature="0"
     style="fill:#7db829" />
  <path
     d="m 127.64024,223.37804 c -56.099998,-6 -96.099998,25.7 -96.699998,26.4 11.8,-7.9 24.9,-11.7 40.2,-11.7 14.3,0 28.2,4.7 39.399998,11.7 5,-9.2 10.7,-17.9 17.1,-26.4"
     id="path12"
     inkscape:connector-curvature="0"
     style="fill:#ee980d" />
  <path
     d="m 373.94024,172.77804 c -27.9,-15.7 -59.1,-24.7 -93.4,-24.7 -106.9,0 -193.499998,87 -193.499998,194.4 0,173.4 193.499998,421 193.499998,421 0,0 78.8,-100.7 135.8,-218.7 -11.2,-56.1 -38.8,-107.1 -77.5,-146.2 l -0.1,0.1 a 84.42,84.42 0 0 1 -143.9,-59.9 c 0,-43.9 33.6,-80 76.5,-84 28.4,-33.5 63.3,-61.4 102.6,-82"
     id="path14"
     inkscape:connector-curvature="0"
     style="fill:#d13926" />
  <path
     d="m 279.14024,313.17804 c -14,0 -25.3,11.3 -25.3,25.3 0,14 11.3,25.3 25.3,25.3 14,0 25.3,-11.3 25.3,-25.3 0,-14 -11.3,-25.3 -25.3,-25.3 m -10.2,21.6 a 4.8,4.8 0 1 1 4.8,-4.8 c 0,2.7 -2.1,4.8 -4.8,4.8"
     id="path16"
     inkscape:connector-curvature="0"
     style="fill:#221e20" />
  <path
     d="m 116.04024,213.27804 c -30.899998,2.4 -61.799998,15.9 -85.099998,36.4 2.7,-2.2 42.1,-32.2 96.699998,-26.4 -3.8,-3.4 -7.6,-6.8 -11.6,-10"
     id="path18"
     inkscape:connector-curvature="0"
     style="fill:#f5c128" />
  <path
     d="m 107.24024,206.47804 c -28.799998,7.1 -55.899998,23.1 -76.399998,43.2 23.3,-20.5 54.3,-34 85.099998,-36.4 -2.8,-2.3 -5.7,-4.6 -8.7,-6.8"
     id="path20"
     inkscape:connector-curvature="0"
     style="fill:#f2b524" />
  <path
     d="m 127.64024,223.37804 c 6.3,-7.7 13.2,-15.8 20.7,-22.8 0,0.2 0,0.1 0,0 a 267.16,267.16 0 0 0 -92.299998,-35.5 c -19,-3.4 -58.5999996,-3.7 -59.4999996,-3.3 3.69999999,0.5 7.8,1.2 11.5,1.9 46.1999996,8.3 87.4999996,30.6 119.5999976,59.7"
     id="path22"
     inkscape:connector-curvature="0"
     style="fill:#4ead33" />
  <path
     d="m 111.94024,170.77804 c -0.1,0 0.1,0 0,0 -36.799998,-10.7 -76.599998,-13 -115.4999976,-9 6.4,-0.2 42.0999996,0.2 59.4999996,3.3 33.7,6 64.799998,18.5 92.299998,35.5 -12.9,-8.8 -25.1,-18.8 -36.3,-29.8"
     id="path24"
     inkscape:connector-curvature="0"
     style="fill:#b4ce5c" />
  <path
     d="m 148.34024,200.57804 c 0.1,-0.2 -0.2,0.2 0,0 11.1,-10.3 23.8,-19.8 37,-27.3 -0.1,0 0.1,0 0,0 A 244.66,244.66 0 0 1 39.640242,38.778043 c 14,66.999997 54.1,124.699997 108.699998,161.799997"
     id="path26"
     inkscape:connector-curvature="0"
     style="fill:#1c99c5" />
  <path
     d="m 201.24024,165.07804 c -2.6,-0.6 -5.3,-1.3 -7.4,-2 -64.8,-18.9 -125.099998,-63.999997 -154.199998,-124.299997 A 244.66,244.66 0 0 0 185.34024,173.27804 c 5.2,-3 10.5,-5.7 15.9,-8.2"
     id="path28"
     inkscape:connector-curvature="0"
     style="fill:#59c1db" />
  <path
     d="m 423.94024,526.97804 a 283.6,283.6 0 0 0 -83.7,-129.9 c -0.5,0.5 -1,1 -1.4,1.5 l 0.1,-0.1 c 38.7,39.1 66.3,90.1 77.5,146.2 3.6,-7.6 8.3,-19.5 7.5,-17.7"
     id="path30"
     inkscape:connector-curvature="0"
     style="fill:#c93422" />
  <path
     d="m 316.44024,378.17804 a 53.38,53.38 0 0 1 -37.3,15.2 c -29.8,0 -54,-24.6 -54,-54.9 0,-8.2 1.8,-16 5,-23 11.4,-21.8 25.4,-42.2 41.3,-60.9 -42.9,4 -76.5,40.1 -76.5,84.1 a 84.42,84.42 0 0 0 143.9,59.9 c 0.5,-0.5 1,-1 1.4,-1.5 -7.6,-6.7 -15.5,-13 -23.8,-18.9"
     id="path32"
     inkscape:connector-curvature="0"
     style="fill:#a92e1e" />
  <path
     d="m 373.94024,172.77804 c -61.3,32.1 -112.1,82.1 -143.9,142.6 -3.2,7 -5,14.8 -5,23 0,30.3 24.2,54.9 54,54.9 14.5,0 27.6,-5.8 37.3,-15.2 30.2,-52.5 75.5,-95.4 129.9,-122.6 a 84,84 0 0 1 5.2,-2.6 194.81,194.81 0 0 0 -77.5,-80.1 m -94.8,191 c -14,0 -25.3,-11.3 -25.3,-25.3 0,-14 11.3,-25.3 25.3,-25.3 14,0 25.3,11.3 25.3,25.3 0,14 -11.3,25.3 -25.3,25.3"
     id="path34"
     inkscape:connector-curvature="0"
     style="fill:#ebebeb" />
</svg>
